<?xml version="1.0" encoding="utf-8"?>
<!DOCTYPE svg PUBLIC "-//W3C//DTD SVG 1.0//EN" "http://www.w3.org/TR/2001/REC-SVG-20010904/DTD/svg10.dtd">
<svg version="1.0" xmlns="http://www.w3.org/2000/svg" width="178px" height="180px" viewBox="0 0 178 180" preserveAspectRatio="xMidYMid meet">
 <g fill="#0855e2">
  <path d="M0 90 l0 -90 89 0 89 0 0 90 0 90 -89 0 -89 0 0 -90z m100 57.45 c19.35 -3.50 36.90 -19.45 43.15 -39.25 2.10 -6.70 3.10 -14.60 2.40 -19.95 -0.75 -6.45 -2.20 -11.50 -5 -17.95 -3.30 -7.60 -6.95 -13.15 -12.55 -18.95 -5.20 -5.45 -8.75 -8 -16.75 -12 -15.60 -7.85 -30.15 -8 -45.55 -0.65 -7.40 3.55 -11.05 6.10 -16.20 11.25 -5.75 5.75 -10.85 13.55 -13.50 20.65 -2.20 5.95 -3 10.85 -3 18.45 -0.05 7.85 0.65 12.40 2.80 18.85 4.95 14.90 17.75 29 32.45 35.65 9.30 4.20 21.60 5.70 31.75 3.90z"/>
  <path d="M91.75 132.75 c-13.50 -2.45 -26.45 -18.50 -32.95 -40.80 -3.25 -11.30 -3.05 -23.55 0.55 -30.95 1.75 -3.60 6.65 -8.45 10.15 -10.10 7.65 -3.65 18.75 -2.95 25.55 1.60 3.80 2.50 9.65 8.25 12.30 12.10 2.85 4.15 7.50 12.70 9.15 16.90 1.80 4.45 3.80 11.95 4.50 16.60 0.80 5.30 0.40 16.10 -0.70 19.60 -2.45 7.70 -9.75 13.75 -18.35 15.25 -4 0.65 -5.70 0.65 -10.20 -0.20z"/>
 </g>
 <g fill="#fcf7fe">
  <path d="M86 149.70 c-3.90 -0.30 -9.15 -1.25 -12.75 -2.30 -15.35 -4.45 -29.70 -17.30 -37 -33.10 -5.95 -12.75 -6.65 -31.80 -1.70 -45.20 3.60 -9.90 12.45 -21.35 20.90 -27.05 4.45 -3.05 13.60 -7.30 18.15 -8.50 9.75 -2.50 19.95 -2.40 29.35 0.30 4.80 1.40 13.55 5.60 18.60 8.95 4.35 2.90 11.90 10.80 15.30 16.10 6.40 9.95 10.65 23.25 10.65 33.45 0 4.20 -1.40 12.80 -2.85 17.35 -6.25 19.80 -23.65 35.65 -43.15 39.25 -3.15 0.55 -12.15 1 -15.50 0.75z m14.45 -18.25 c8.60 -1.50 15.95 -7.55 18.30 -15.25 1.15 -3.65 1.50 -11.80 0.75 -16.75 -1.30 -8.35 -3.95 -16.10 -8.30 -24.35 -4.80 -9.15 -8.25 -13.60 -14.70 -18.85 -4.20 -3.40 -8 -5.20 -12.60 -5.85 -7.15 -0.95 -13.55 1.20 -18.70 6.30 -6.10 6.10 -8.25 14.30 -6.65 25.60 1.10 7.85 5.15 19.35 9.60 27.10 7.15 12.55 16 20.20 25.10 21.85 1.90 0.35 3.60 0.70 3.70 0.70 0.10 0.05 1.70 -0.20 3.50 -0.50z"/>
 </g>
</svg>