<?xml version="1.0" encoding="utf-8"?>
<!DOCTYPE svg PUBLIC "-//W3C//DTD SVG 1.0//EN" "http://www.w3.org/TR/2001/REC-SVG-20010904/DTD/svg10.dtd">
<svg version="1.0" xmlns="http://www.w3.org/2000/svg" width="252px" height="253px" viewBox="0 0 252 253" preserveAspectRatio="xMidYMid meet">
 <g fill="#fafafb">
  <path d="M0 126.50 l0 -126.50 126 0 126 0 0 126.50 0 126.50 -126 0 -126 0 0 -126.50z m46.35 79.40 c0.75 -0.85 0.75 -0.90 0 -0.90 -0.70 0 -0.85 -0.85 -1 -5.85 -0.05 -3.25 -0.15 -0.95 -0.15 5.10 0 6.05 0.10 9.10 0.15 6.75 0.15 -3 0.45 -4.50 1 -5.10z m73.30 -4.25 c0.25 -0.40 0.20 -0.65 -0.10 -0.65 -0.30 0 -0.60 -1.75 -0.70 -4.10 -0.05 -2.30 -0.15 0.90 -0.15 7.10 0 8.95 0.05 9.95 0.25 4.75 0.15 -3.55 0.50 -6.80 0.70 -7.10z m11.20 5 c-0.10 -1.60 -0.15 -0.30 -0.15 2.85 0 3.15 0.05 4.45 0.15 2.90 0.10 -1.60 0.10 -4.20 0 -5.75z m28.25 0.50 c0.10 -3.10 0 -5.65 -0.20 -5.65 -0.25 0 -0.35 3.10 -0.35 6.90 0.10 7.70 0.35 7.15 0.55 -1.25z m11.75 0 c-0.10 -1.60 -0.15 -0.40 -0.15 2.60 0 3.05 0.05 4.35 0.15 2.90 0.10 -1.45 0.10 -3.90 0 -5.50z m-61.50 -1.50 c-0.10 -1.05 -0.20 -0.20 -0.20 1.85 0 2.05 0.10 2.90 0.20 1.90 0.10 -1.05 0.10 -2.75 0 -3.75z m-1.10 -26.40 c4.60 -2.20 8.60 -5.85 11.95 -10.90 3.50 -5.30 4.90 -8.15 6.50 -13.25 2.65 -8.50 1.10 -19.15 -3.40 -22.95 -4.75 -4 -10.40 -5 -15.05 -2.65 -2.45 1.25 -3.90 2.85 -7 7.80 -2 3.25 -8.80 9 -13.70 11.60 -3.65 1.95 -4.15 2.10 -7.95 2.10 -3.75 0 -4.10 0.10 -5.05 1.35 -0.60 0.70 -1.40 2.50 -1.85 4 -0.70 2.40 -0.70 2.90 -0.05 4.90 2.20 6.35 10.15 13.95 18.60 17.80 6.35 2.85 11.35 2.95 17 0.20z m43.50 -0.50 c6.60 -2 19.65 -8.30 23.05 -11.05 1.15 -0.90 2.45 -2.50 2.95 -3.50 1.75 -3.75 0.20 -14.35 -3.40 -23.10 -3.50 -8.55 -9.10 -14.90 -16.30 -18.60 -2.25 -1.10 -2.55 -1 -6.90 3.15 -3.40 3.25 -5.60 4.70 -9.35 6.20 -1.65 0.70 -3.20 1.40 -3.40 1.60 -0.20 0.20 0.30 2.35 1.15 4.80 1.95 5.80 2.65 11.10 2.30 18.25 -0.30 6.95 -1 9.95 -2.80 11.85 -1.45 1.45 -2.55 3.25 -2.55 4.05 0 1.75 7.80 9.05 8.95 8.40 0.15 -0.10 3 -1 6.30 -2.05z m-77.55 -42.50 c8.25 -1.45 15.25 -5.10 20.40 -10.65 3.20 -3.45 3.35 -4.15 1.25 -7.30 -2.90 -4.35 -4.25 -7.40 -5.10 -11.55 -0.45 -2.20 -0.90 -4.10 -1.05 -4.25 -0.15 -0.15 -5.25 -0.25 -11.35 -0.30 l-11.10 -0.05 -5.25 -1.80 c-4.30 -1.45 -5.50 -2.10 -6.50 -3.45 -2.60 -3.45 -3.40 -4 -5.15 -3.60 -2.60 0.55 -6.85 3.80 -8.10 6.20 -1.20 2.40 1.25 17.25 4.50 27.25 1.35 4.15 4.15 8.50 5.75 9 5.80 1.85 13.35 2 21.70 0.50z m127.15 -2.35 c1.65 -0.75 2.35 -1.50 3.30 -3.55 1.35 -2.80 5 -14 5.55 -16.85 2.35 -11.95 2.40 -13.10 0.70 -16.40 -0.85 -1.65 -5.50 -4.95 -10.65 -7.60 -10.85 -5.55 -20.80 -7.30 -28.30 -5 -4.25 1.25 -6.95 2.55 -7.95 3.75 -0.55 0.70 -0.70 2.50 -0.55 8.45 0.10 5.85 -0.05 8.05 -0.65 9.80 -0.70 2.10 -0.70 2.30 0.10 3.15 0.50 0.45 3.05 1.60 5.70 2.50 10.80 3.75 21.40 12.45 21.40 17.60 0 2.20 1.95 4.90 3.75 5.30 2.10 0.50 5.15 0.05 7.60 -1.15z m-112.15 -43.55 c0.65 -0.65 1.55 -2.50 2.05 -4.15 1.50 -5.20 3.20 -8.85 5.30 -11.30 1.35 -1.60 1.90 -2.70 1.75 -3.30 -0.20 -0.50 -1.90 -2.30 -3.85 -4.05 -3.45 -3.10 -7.55 -8.35 -9.55 -12.30 -2.85 -5.50 -4.15 -12.25 -2.95 -15.40 0.65 -1.60 -0.30 -2.90 -3.20 -4.55 -3.20 -1.75 -6.35 -2.15 -8.10 -1.05 -3.80 2.50 -11 10.85 -16.60 19.15 -3.60 5.35 -4.55 7.40 -4.55 9.65 0 6 14.90 21.95 24.35 26 3.20 1.35 7.75 2.35 11.30 2.40 2.40 0.05 3.10 -0.15 4.05 -1.10z m73.55 -16.15 c2.45 -1.55 5.60 -3.35 6.95 -3.95 7.25 -3.20 18.55 -4.35 22.45 -2.25 1 0.55 2.20 1 2.60 1 2.05 0 6.75 -6.60 6.75 -9.60 0 -1.25 -4.20 -8.45 -7.40 -12.65 -4.55 -5.95 -12.20 -13.80 -14.70 -15.05 l-2.45 -1.25 -3.95 1.20 c-4.05 1.25 -13.90 6.30 -17 8.75 -7.65 6.05 -12.70 13.30 -14.20 20.35 -0.40 1.90 0.90 3.25 6.20 6.70 4.60 2.95 5.90 4.15 7.95 7.20 0.90 1.30 1.75 2.35 2 2.35 0.20 0 2.35 -1.25 4.80 -2.80z m-49.80 -9.65 c4.55 -2.30 8.75 -3.55 12 -3.55 2.15 0 3.25 -0.25 4.10 -0.95 1.10 -0.90 1.20 -1.30 1.10 -5.40 -0.15 -5.20 0.95 -12.45 2.65 -17.50 1.50 -4.60 4.50 -9.45 6.25 -10.15 1.90 -0.80 4.45 -3.45 4.45 -4.60 0 -1.55 -3 -6.80 -4.75 -8.35 -3.05 -2.65 -10.95 -2.50 -28.60 0.65 -6.35 1.15 -9.10 3.30 -10.65 8.45 -0.35 1.15 -0.80 2.55 -1 3.10 -0.70 1.70 -1.25 7.30 -1.20 12.25 0.10 7.85 2.55 15.95 6.50 21.35 1.80 2.45 5.30 6.15 5.80 6.15 0.25 0 1.75 -0.65 3.35 -1.45z"/>
 </g>
 <g fill="#d04e0a">
  <path d="M141.40 181.05 c-2.70 -1.75 -6.20 -5.90 -6.65 -8 -0.35 -1.70 0.70 -4.05 2.75 -6.20 1.85 -1.90 2.60 -5 2.80 -11.35 0.15 -6.55 -0.35 -10.05 -2.30 -15.85 -0.85 -2.55 -1.50 -5.35 -1.40 -6.25 0.15 -1.45 0.45 -1.70 3.50 -2.95 3.95 -1.60 6.10 -3 9.55 -6.30 4.80 -4.55 6.25 -5 9.85 -3.15 11.85 6.05 19.65 20.05 20.35 36.55 0.40 9.65 -0.40 10.70 -13.10 17.10 -7.20 3.60 -19 7.85 -21.85 7.85 -0.65 0 -2.25 -0.65 -3.50 -1.45z"/>
  <path d="M55.35 138.25 c-5 -1.05 -5.15 -1.10 -7.05 -3.70 -2.40 -3.25 -4.65 -10.30 -6.55 -20.55 -1.05 -5.70 -1.85 -13.45 -1.55 -14.75 0.70 -2.80 5.35 -6.60 9.35 -7.70 2.95 -0.80 4.60 -0.05 6.70 3 1.60 2.25 3.20 3.10 9 4.85 4.65 1.35 10.80 1.75 17.60 1.15 3.90 -0.35 6.10 -0.35 7.15 0 0.80 0.30 1.50 0.65 1.50 0.75 0 0.15 0.35 1.95 0.80 4.05 0.80 4 2.15 7.10 4.95 11.35 0.95 1.40 1.85 3.15 2 3.85 0.95 3.85 -7.05 11.60 -15.35 14.90 -7.30 2.95 -21.30 4.30 -28.55 2.80z"/>
  <path d="M192.25 136.60 c-1.80 -0.45 -3.75 -3.15 -3.75 -5.35 0 -5.15 -10.60 -13.85 -21.35 -17.55 -7.10 -2.45 -7.65 -3.10 -6.10 -7.80 0.95 -2.80 1 -3.95 0.75 -10.70 -0.25 -7.35 -0.25 -7.55 0.85 -8.55 3.05 -2.80 9.55 -4.70 16.05 -4.70 6.20 0.05 9.85 0.70 15.80 2.90 8.80 3.25 16.70 8.20 18.25 11.45 1.65 3.45 1.60 4.70 -0.55 16.20 -0.90 4.85 -4.25 15.50 -6.05 19.35 -0.95 2.05 -1.65 2.80 -3.40 3.65 -2.30 1.10 -7.90 1.70 -10.50 1.10z"/>
  <path d="M77.75 92.25 c-7.05 -1.55 -13 -5.50 -20.75 -13.65 -7.75 -8.15 -10.20 -13.10 -9 -18.15 0.65 -2.70 5.50 -10.50 10.40 -16.65 3.65 -4.65 9.85 -10.75 11.70 -11.50 3.20 -1.35 11.15 1 13.15 3.85 0.90 1.30 0.95 2.60 0.15 5.60 -0.55 2 -0.45 2.65 0.55 5.85 2.25 7.05 6.45 13.45 12 18.45 1.95 1.70 3.85 3.80 4.25 4.65 0.85 1.75 0.60 2.40 -2.30 5.85 -1.95 2.35 -3.70 6.05 -5.15 11.15 -0.50 1.65 -1.40 3.50 -2.05 4.15 -1.05 1.05 -1.55 1.15 -5.55 1.10 -2.40 -0.05 -5.75 -0.35 -7.40 -0.70z"/>
  <path d="M156.60 78.65 c-0.35 -0.10 -1.30 -1.30 -2.20 -2.55 -2 -3 -3.30 -4.20 -7.90 -7.15 -5.35 -3.45 -6.50 -4.75 -6.50 -7.20 0.05 -2.65 1.85 -7.80 4 -11.50 1.70 -2.95 7.05 -8.70 10.50 -11.35 5.45 -4.25 18.30 -9.90 22.40 -9.90 3.05 0 6.15 2.15 11.40 7.85 6.70 7.25 8.20 9.20 12 15.50 2.95 4.90 3.25 5.60 3 7.50 -0.40 3.15 -2.70 7.50 -5 9.45 -1.80 1.55 -2.30 1.75 -3.95 1.50 -1.05 -0.20 -2.70 -0.75 -3.75 -1.30 -2.45 -1.35 -7.20 -1.30 -12.65 0.05 -5.20 1.35 -8.40 2.75 -12.90 5.65 -5.70 3.70 -6.80 4.15 -8.45 3.45z"/>
  <path d="M105.65 65.40 c-6.70 -7 -9.85 -15.65 -9.90 -27.15 0 -6.10 0.50 -11.70 1.25 -13.50 0.20 -0.55 0.65 -1.95 1 -3.10 1.55 -5.15 4.30 -7.30 10.65 -8.45 18.80 -3.35 28.70 -3.50 31.80 -0.50 2.90 2.75 4.80 7.35 4.60 11.10 -0.05 1.25 -2.60 3.90 -4.50 4.70 -1.55 0.60 -4.45 5.05 -5.90 9 -1.75 4.60 -2.75 10.85 -2.85 17.15 -0.05 5.60 -0.10 6 -1.25 6.90 -0.85 0.70 -1.95 0.95 -4.10 0.95 -3.25 0 -7.45 1.25 -12 3.55 -4.25 2.15 -6.25 2 -8.80 -0.65z"/>
 </g>
 <g fill="#2e89b4">
  <path d="M110.50 238.75 c0 -1.10 0.15 -1.25 1.20 -0.95 1.35 0.30 4.05 -0.90 4.45 -2.05 0.45 -1.10 1.35 -0.95 1.35 0.25 0 0.55 0.25 1 0.50 1 0.30 0 0.50 0.70 0.50 1.50 0 1.65 -0.55 1.90 -1.50 0.75 -0.55 -0.65 -0.75 -0.65 -1.65 0 -0.60 0.40 -1.90 0.75 -2.95 0.75 -1.70 0 -1.90 -0.15 -1.90 -1.25z"/>
  <path d="M95.50 182.45 c-6.20 -1.10 -14.75 -6.50 -19.90 -12.55 -3.20 -3.80 -4.70 -6.75 -5 -9.90 -0.25 -2.95 1 -7.50 2.60 -9.35 1.15 -1.35 1.40 -1.40 5.05 -1.25 3.70 0.10 4.05 0 7.80 -2 4.90 -2.60 11.70 -8.35 13.70 -11.60 4.75 -7.65 6.95 -9.05 14 -9.05 3.90 0 4.85 0.20 7.05 1.35 6.80 3.60 8.70 7.70 8.70 19.25 0 7.75 -2.15 13.90 -7.80 22.50 -5.25 7.90 -12.35 12.60 -19.60 12.90 -2.10 0.10 -5.10 0 -6.60 -0.30z"/>
 </g>
 <g fill="#000000">
  <path d="M121.95 243.65 c-0.10 -0.50 -0.15 -4.35 -0.05 -8.60 0.15 -7.40 0.20 -7.65 1.15 -7.40 0.55 0.15 1.85 0 2.85 -0.35 5.90 -2.05 9.50 6.95 4.55 11.35 -1.30 1.20 -1.90 1.40 -3.90 1.25 l-2.30 -0.15 -0.15 1.75 c-0.25 2.60 -1.75 4.05 -2.15 2.15z m7.55 -7.20 c0.70 -1.30 0.60 -5.55 -0.20 -6.55 -1.05 -1.40 -3.55 -1.15 -4.75 0.40 -1.20 1.50 -1.40 4.55 -0.40 5.85 0.65 0.95 3.25 1.85 4.25 1.45 0.35 -0.10 0.85 -0.65 1.10 -1.15z"/>
  <path d="M82.30 239.65 c-0.15 -0.20 -0.30 -2.20 -0.30 -4.50 0 -5.10 -0.45 -6.15 -2.70 -6.15 -2.70 0 -3.30 1.15 -3.30 6.15 0 4.30 0 4.35 -1.25 4.35 l-1.25 0 0 -7.95 c0 -6.35 0.15 -8.05 0.75 -8.55 1.15 -0.95 1.75 -0.10 1.75 2.60 0 2.40 0.05 2.50 1.15 2.15 1.90 -0.70 4.80 -0.50 5.70 0.35 1.15 1.15 1.55 11.15 0.45 11.55 -0.40 0.15 -0.85 0.15 -1 0z"/>
  <path d="M89.50 239.35 c-3.85 -1.90 -3.90 -9.60 -0.05 -11.55 3.30 -1.70 6.95 -0.35 8.05 3 0.95 2.85 0.55 3.15 -4.10 3.30 -3.75 0.15 -4.15 0.25 -4.30 1.20 -0.20 1.25 0.60 1.95 2.70 2.40 1.25 0.30 1.90 0.10 3.15 -1 1.20 -1 1.75 -1.20 2.15 -0.80 0.80 0.80 -0.45 3.05 -2 3.65 -1.65 0.65 -4.15 0.55 -5.60 -0.20z m5.70 -7.75 c0.15 -0.25 -0.10 -0.90 -0.50 -1.50 -0.90 -1.35 -3.45 -1.45 -4.80 -0.25 -1.70 1.55 -1.15 2.15 2.05 2.15 1.65 0 3.10 -0.20 3.25 -0.40z"/>
  <path d="M100.85 239.70 c-0.20 -0.20 -0.35 -3.05 -0.35 -6.35 l0 -5.95 1.35 0.25 c0.75 0.15 1.75 0 2.25 -0.30 0.60 -0.40 1.15 -0.45 1.70 -0.10 1.15 0.75 0.90 1.45 -0.75 1.90 -1.90 0.45 -2.20 1.25 -2.50 6.30 -0.30 3.85 -0.80 5.15 -1.70 4.25z"/>
  <path d="M109 239 c-2.80 -2.80 -1.20 -5.70 3.80 -6.70 2.65 -0.55 2.95 -0.70 2.95 -1.80 0 -1.10 -0.25 -1.25 -1.95 -1.40 -1.40 -0.15 -2.20 0.10 -3.05 0.90 -1.20 1.10 -2.25 1 -2.25 -0.25 0 -1.45 2.55 -2.75 5.30 -2.75 2.25 0 2.80 0.20 3.65 1.30 0.90 1.15 1.05 2.05 1.05 6.50 0 2.85 -0.15 5.20 -0.40 5.20 -0.20 0 -0.75 -0.45 -1.25 -1 -0.45 -0.55 -1.20 -1 -1.70 -1 -0.75 0 -0.80 -0.05 0 -0.60 0.45 -0.35 0.95 -1.30 1.15 -2.10 l0.35 -1.45 -2.35 0.30 c-2.55 0.35 -4.30 1.10 -4.30 1.85 0 0.70 1.75 2.15 2.75 2.30 0.40 0.05 0.75 -0.10 0.75 -0.35 0 -0.25 0.45 -0.05 1 0.40 1.25 1.10 0.50 1.65 -2.35 1.65 -1.50 0 -2.45 -0.30 -3.15 -1z"/>
  <path d="M136.55 238.70 c-1.80 -1.50 -2.55 -3.85 -2.10 -6.50 0.70 -3.70 2.40 -5.20 6 -5.20 2.40 0 4.30 1.40 5.05 3.80 0.95 2.90 0.55 3.20 -4.15 3.20 -2.30 0 -4.35 0.15 -4.50 0.30 -0.65 0.65 1.35 3.15 2.75 3.45 1 0.25 1.80 0 3.10 -1 2.80 -2.15 3.95 -0.55 1.40 1.90 -1.95 1.85 -5.35 1.90 -7.55 0.05z m6.70 -7.25 c0.60 -0.90 -1.30 -2.45 -3 -2.45 -1.70 0 -3.60 1.55 -3 2.45 0.15 0.30 1.50 0.55 3 0.55 1.50 0 2.85 -0.25 3 -0.55z"/>
  <path d="M149.85 239 c-1.40 -1.10 -1.40 -1.10 -1.25 -6.40 0.10 -4.35 0.30 -5.35 0.90 -5.35 0.60 0 0.80 0.95 1 4.50 0.15 2.50 0.45 4.80 0.65 5.15 0.55 0.80 2.95 0.75 4.15 -0.10 0.80 -0.60 1 -1.45 1.15 -5 0.10 -3.10 0.35 -4.30 0.80 -4.30 1 0 1.25 1.25 1.25 6.80 l0 5.20 -1.35 0 c-0.80 -0.05 -2.40 0.10 -3.65 0.25 -1.85 0.30 -2.50 0.15 -3.65 -0.75z"/>
  <path d="M163 239 c-0.85 -0.85 -1 -1.65 -1 -5.50 0 -3.50 -0.15 -4.60 -0.75 -4.80 -0.60 -0.25 -0.60 -0.45 -0.05 -1.35 0.40 -0.60 0.85 -1.75 1 -2.50 0.45 -1.90 2.10 -1.65 1.90 0.25 -0.10 1 0.20 1.60 1.20 2.20 l1.30 0.85 -1.30 0.70 c-1.20 0.65 -1.30 0.90 -1.25 4.10 0.05 3.70 0.25 4.20 1.60 4.70 0.45 0.15 0.85 0.80 0.85 1.35 0 1.35 -2.15 1.35 -3.50 0z"/>
  <path d="M168.85 239.70 c-0.20 -0.20 -0.35 -3.05 -0.35 -6.30 0 -5.40 0.10 -5.95 0.90 -5.80 0.75 0.15 0.85 0.85 0.85 6.10 0 5.55 -0.35 7.05 -1.40 6z"/>
  <path d="M175 238.60 c-2.75 -2.80 -2.40 -8.75 0.65 -10.60 0.90 -0.55 2.40 -1 3.40 -1 3 0 5.85 3 3.65 3.85 -0.55 0.20 -1.15 -0.10 -1.70 -0.85 -1.10 -1.45 -3.25 -1.50 -4.65 -0.10 -0.80 0.80 -1.05 1.70 -1.05 3.60 0 2.85 0.70 3.80 3.05 4.30 1.35 0.25 1.70 0.10 2.70 -1.25 1.35 -1.85 2.45 -2 2.45 -0.35 0 1.85 -2.60 3.80 -5.10 3.80 -1.50 0 -2.30 -0.35 -3.40 -1.40z"/>
  <path d="M187.10 239.50 c-1.45 -0.60 -2.50 -2.80 -1.70 -3.60 0.45 -0.45 0.85 -0.35 1.70 0.45 2.30 2.15 5.40 1.90 5.40 -0.40 0 -0.70 -0.75 -1.10 -3 -1.75 -4.45 -1.25 -5.60 -3.35 -3.25 -5.90 1.65 -1.80 5.05 -1.85 7.10 -0.10 1 0.90 1.25 1.40 0.85 1.80 -0.55 0.60 -2.20 0.20 -2.20 -0.55 0 -0.75 -3.85 -0.50 -4.50 0.30 -0.50 0.65 -0.30 0.90 1.55 1.75 1.20 0.55 2.45 1 2.75 1 0.30 0 1.15 0.45 1.90 1.05 2.90 2.30 0.75 6.50 -3.30 6.40 -1.20 0 -2.65 -0.20 -3.30 -0.45z"/>
  <path d="M64 232.05 c0 -8.05 0 -8.05 -2.75 -7.75 -1.75 0.20 -3.05 -0.45 -2.50 -1.25 0.40 -0.70 11.85 -0.65 12.85 0.05 1.05 0.65 -0.55 1.40 -3.20 1.40 l-2.40 0 0 7.50 c0 7.15 -0.05 7.50 -1 7.50 -0.95 0 -1 -0.35 -1 -7.45z"/>
  <path d="M168.55 224.30 c-0.45 -0.50 -0.40 -0.80 0.20 -1.30 0.95 -0.80 2.05 0.05 1.60 1.20 -0.40 1 -1.05 1 -1.80 0.10z"/>
  <path d="M88.40 224.10 c-0.85 -0.15 -0.90 -1.15 -0.90 -12.65 0 -10.75 0.10 -12.50 0.75 -12.80 0.45 -0.15 1.25 0.15 1.75 0.60 0.95 0.85 1.05 0.85 1.90 0.10 1.35 -1.25 5.80 -1.15 7.85 0.15 3 1.85 4.45 7 3.25 11.45 -0.30 1.20 -1.35 3 -2.45 4.15 -2.20 2.40 -5.30 3.05 -7.95 1.70 -0.85 -0.45 -1.65 -0.80 -1.85 -0.80 -0.15 0 -0.25 1.80 -0.25 3.95 0 4.05 -0.25 4.60 -2.10 4.15z m9.15 -10.10 c1.60 -0.90 2.45 -3.20 2.45 -6.80 0 -3.10 -0.10 -3.40 -1.75 -5.05 -1.50 -1.50 -2 -1.75 -3.35 -1.45 -1.95 0.40 -3.10 1.35 -4.10 3.55 -1.35 2.75 -0.70 7.35 1.25 9.30 1.05 1.05 3.90 1.30 5.50 0.45z"/>
  <path d="M110.15 217 c-1.95 -0.80 -2.40 -2.35 -2.50 -9.25 -0.10 -6 -0.15 -6.50 -1.10 -6.85 -1.05 -0.35 -1.50 -1.90 -0.60 -1.90 1.15 0 2.10 -1.65 1.80 -3.05 -0.25 -1.15 -0.10 -1.70 0.85 -2.45 1.95 -1.65 2.40 -1.30 2.40 2 0 2.60 0.10 3 0.95 3 1.45 0 2.55 0.55 2.55 1.25 0 0.70 -1.10 1.25 -2.55 1.25 -0.90 0 -0.95 0.40 -0.95 6.40 l0 6.40 1.60 0.45 c2.65 0.80 2.40 3.30 -0.35 3.20 -0.55 0 -1.50 -0.20 -2.10 -0.45z"/>
  <path d="M129.90 216.95 c-0.80 -0.45 -0.90 -1.35 -0.90 -7.40 0 -6.05 -0.10 -7 -0.90 -7.70 -1.40 -1.25 -4.30 -1.10 -5.95 0.35 -1.40 1.20 -1.40 1.35 -1.65 7.90 l-0.25 6.65 -1.50 0 -1.50 0 -0.15 -12.60 -0.10 -12.65 1.75 0 1.75 0 0 4.05 c0 4 0 4.05 1.15 3.70 0.60 -0.20 2.50 -0.50 4.15 -0.60 2.85 -0.20 3.20 -0.10 4.75 1.25 l1.70 1.50 0.15 7.65 c0.15 5.90 0.05 7.70 -0.50 8 -0.80 0.55 -0.95 0.55 -2 -0.10z"/>
  <path d="M140.75 216.60 c-2.60 -1.65 -4.10 -3.85 -4.50 -6.55 -0.70 -5 0.95 -9.10 4.25 -10.80 2.30 -1.20 7 -1 9.05 0.40 4.85 3.20 5.30 11.35 0.90 15.65 -1.75 1.75 -2.25 1.90 -5.05 2.10 -2.45 0.10 -3.50 -0.05 -4.65 -0.80z m7.60 -3.30 c1.20 -1.05 1.40 -1.60 1.55 -4.60 0.10 -1.90 -0.05 -4.05 -0.35 -4.80 -1.10 -2.85 -5.40 -3.95 -8 -2.05 -2.95 2.25 -3.10 9.40 -0.20 11.65 1.85 1.45 5.20 1.35 7 -0.20z"/>
  <path d="M169.60 216.90 c-0.40 -0.40 -0.60 -2.80 -0.60 -7.40 0 -7.75 -0.30 -8.50 -3.60 -8.50 -4.10 0 -4.60 0.95 -4.90 9.25 l-0.25 6.50 -1.50 0 -1.50 0 0 -9 c0 -8.50 0.05 -9 0.95 -9.15 0.55 -0.15 1.30 0.20 1.65 0.70 0.65 0.85 0.75 0.85 2.10 0.05 1.90 -1.10 6.40 -1.15 8 -0.05 2.05 1.45 2.55 3.60 2.55 10.65 0 5.95 -0.10 6.55 -0.95 7.05 -1.20 0.65 -1.20 0.65 -1.95 -0.10z"/>
  <path d="M187.95 216.95 c-1.75 -0.65 -1.95 -1.50 -1.95 -9.10 0 -6.35 0 -6.40 -1.25 -6.85 -1.65 -0.60 -1.60 -1.90 0.05 -2.50 1.15 -0.45 1.30 -0.75 1.10 -2.25 -0.15 -1.35 0.05 -2 0.95 -2.85 1.50 -1.40 1.85 -0.95 1.90 2.25 0 2.50 0.05 2.60 1.50 2.85 1.05 0.20 1.50 0.55 1.50 1.25 0 0.70 -0.45 1.05 -1.50 1.25 -1.50 0.25 -1.50 0.30 -1.65 4 -0.10 2.05 0 4.95 0.15 6.40 0.30 2.40 0.45 2.65 1.80 2.95 1.80 0.35 2.15 0.85 1.45 2.15 -0.60 1.10 -1.95 1.20 -4.05 0.45z"/>
  <path d="M199.50 216.95 c-3.40 -1.35 -5 -4.20 -5 -8.95 0 -6.45 2.65 -9.50 8.25 -9.50 4.70 0 6.55 1.45 7.95 6.20 1.10 3.60 0.75 3.80 -6.65 3.80 -7.10 0 -7.40 0.15 -6.30 2.85 0.90 2.15 2.60 3.15 5.25 3.15 1.90 0 2.55 -0.25 3.75 -1.50 2.45 -2.60 4.95 -1.35 2.90 1.40 -1.95 2.70 -6.75 3.90 -10.15 2.55z m8.25 -11.45 c0.35 -0.60 -0.90 -3.05 -2 -4 -0.45 -0.35 -1.85 -0.65 -3.10 -0.65 -1.95 0 -2.50 0.20 -3.75 1.55 -0.75 0.90 -1.40 2.05 -1.40 2.60 0 0.95 0.35 1 4.95 1 2.75 0 5.15 -0.20 5.30 -0.50z"/>
  <path d="M43.85 216.70 c-0.20 -0.20 -0.35 -5.95 -0.35 -12.80 l0 -12.45 1.65 0.15 1.60 0.15 0.15 5.90 c0.05 3.20 0.30 5.85 0.50 5.85 0.20 0 3.05 -2.70 6.35 -6 5.90 -5.90 6 -6 8.25 -6 l2.25 0.05 -5.10 4.95 c-2.85 2.70 -5.15 5.15 -5.15 5.45 0 0.30 2.25 3.55 5 7.25 2.75 3.65 5 6.90 5 7.25 0 0.40 -0.65 0.55 -1.85 0.45 -1.75 -0.15 -2.10 -0.50 -5.90 -5.75 -2.20 -3.10 -4.25 -5.85 -4.55 -6.20 -0.45 -0.40 -1.10 -0.05 -2.65 1.30 l-2 1.85 -0.15 4.30 c-0.15 4.25 -0.20 4.35 -1.40 4.50 -0.70 0.10 -1.45 0 -1.65 -0.20z"/>
  <path d="M67.45 216.55 c-0.10 -0.30 -0.10 -4.40 0.05 -9.15 0.25 -7.85 0.35 -8.65 1.15 -8.80 0.60 -0.15 1 0.20 1.20 0.85 0.35 1.30 0.40 1.30 1.70 0 0.75 -0.75 1.50 -0.95 3.10 -0.85 1.85 0.15 2.10 0.30 2.10 1.40 0 1.10 -0.25 1.25 -2.05 1.40 -3.40 0.25 -3.80 1.05 -4.15 8.70 l-0.30 6.65 -1.30 0.15 c-0.75 0.10 -1.45 -0.10 -1.50 -0.35z"/>
  <path d="M79.75 216.40 c-0.15 -0.40 -0.20 -4.50 -0.15 -9.15 l0.15 -8.50 1.25 0 1.25 0 0 9 c0 8.95 0 9 -1.15 9.15 -0.60 0.10 -1.20 -0.15 -1.35 -0.50z"/>
  <path d="M177.70 216.35 c-0.10 -0.35 -0.15 -4.45 -0.10 -9.10 0.15 -8.40 0.15 -8.50 1.30 -8.65 l1.10 -0.15 0 9.25 c0 9 -0.05 9.30 -1 9.30 -0.55 0 -1.15 -0.30 -1.30 -0.65z"/>
  <path d="M79.85 194.70 c-0.20 -0.20 -0.35 -1 -0.35 -1.80 0 -1.30 0.15 -1.45 1.40 -1.30 1.15 0.15 1.35 0.40 1.35 1.65 0 1.15 -0.25 1.55 -1 1.65 -0.60 0.10 -1.20 0 -1.40 -0.20z"/>
  <path d="M177.50 193.25 c0 -1.50 0.15 -1.75 1.20 -1.75 0.85 0 1.30 0.35 1.50 1.25 0.40 1.65 0.05 2.25 -1.50 2.25 -1.05 0 -1.20 -0.25 -1.20 -1.75z"/>
 </g>
</svg>