<?xml version="1.0" standalone="no"?>
<!DOCTYPE svg PUBLIC "-//W3C//DTD SVG 20010904//EN"
 "http://www.w3.org/TR/2001/REC-SVG-20010904/DTD/svg10.dtd">
<svg version="1.0" xmlns="http://www.w3.org/2000/svg"
 width="194.000000pt" height="188.000000pt" viewBox="0 0 194.000000 188.000000"
 preserveAspectRatio="xMidYMid meet">

<g transform="translate(0.000000,188.000000) scale(0.100000,-0.100000)"
fill="#000000" stroke="none">
<path d="M1023 1639 c-19 -19 -15 -60 7 -89 11 -14 20 -32 20 -41 0 -9 9 -24
20 -34 11 -10 20 -24 20 -32 0 -7 9 -22 20 -33 25 -25 95 -27 122 -3 10 9 28
21 41 27 17 9 23 22 25 53 4 57 -7 74 -80 118 -50 30 -76 39 -123 43 -40 2
-64 -1 -72 -9z m120 -16 c28 -16 76 -80 85 -113 6 -19 11 -27 11 -18 1 26 -16
65 -39 88 -12 12 -19 24 -16 28 4 3 20 -8 37 -24 39 -39 49 -96 23 -125 -10
-11 -19 -28 -19 -37 0 -8 -7 -18 -15 -20 -13 -5 -13 -3 -1 11 10 13 11 17 1
17 -9 0 -7 7 5 20 16 17 16 20 3 15 -9 -4 -19 -13 -22 -22 -4 -9 -13 -13 -22
-9 -9 3 -12 2 -9 -5 4 -6 14 -8 24 -4 12 5 13 3 4 -6 -15 -15 -79 -3 -87 16
-3 8 0 15 7 15 7 1 -1 12 -18 25 -33 28 -29 44 7 22 26 -17 65 -8 74 18 7 18
-12 69 -31 85 -7 6 -4 -8 7 -30 11 -22 18 -46 15 -54 -10 -25 -44 -25 -81 0
-41 28 -47 47 -13 42 28 -4 36 32 11 53 -16 13 -16 12 -3 -8 17 -28 7 -37 -28
-26 -32 11 -40 49 -10 47 9 -1 17 2 17 7 0 11 62 5 83 -8z m144 -121 c3 -27
-1 -43 -12 -52 -20 -17 -32 -5 -15 15 8 10 10 29 6 58 -6 33 -4 39 5 30 7 -7
14 -30 16 -51z"/>
<path d="M1202 1505 c0 -16 2 -22 5 -12 2 9 2 23 0 30 -3 6 -5 -1 -5 -18z"/>
<path d="M775 1624 c-88 -21 -115 -31 -147 -58 -21 -17 -38 -35 -38 -40 0 -5
6 -4 13 1 18 15 105 24 112 13 4 -6 -8 -11 -27 -11 l-33 -2 30 -4 c17 -3 36
-9 43 -15 8 -7 12 -7 12 0 0 6 -6 13 -12 15 -8 3 -6 6 5 6 12 1 17 -7 17 -24
0 -20 -5 -25 -24 -25 -14 0 -28 -5 -32 -11 -10 -16 -64 -2 -92 24 -22 20 -24
20 -14 2 16 -32 54 -63 97 -81 22 -9 47 -22 55 -29 8 -7 50 -20 92 -30 70 -16
80 -16 110 -2 18 8 43 18 55 21 55 17 27 207 -35 236 -29 13 -153 22 -187 14z
m178 -20 c7 -2 25 -31 40 -63 22 -47 26 -68 21 -103 -6 -41 -10 -46 -54 -66
-55 -25 -75 -27 -109 -8 l-24 14 22 11 c12 7 35 10 50 6 47 -10 81 42 67 101
-8 31 -58 84 -80 84 -8 0 -27 5 -43 11 -22 8 -25 12 -13 20 14 9 93 5 123 -7z
m-128 -14 c22 -11 46 -19 54 -20 17 0 61 -39 61 -53 0 -6 -12 0 -27 14 l-28
24 22 -25 c12 -14 23 -41 26 -60 l4 -35 1 40 c2 29 5 36 13 28 14 -14 4 -77
-15 -92 -8 -7 -25 -9 -39 -6 -13 4 -41 0 -62 -9 -52 -22 -68 -19 -25 4 43 23
36 25 -15 4 -34 -14 -39 -14 -54 0 -14 15 -12 16 19 16 19 0 49 9 67 19 56 35
53 79 -9 122 l-33 23 20 -24 c17 -20 18 -23 3 -17 -24 9 -23 5 10 -24 15 -13
21 -17 15 -9 -15 16 -17 30 -5 30 13 0 29 -42 24 -63 -6 -27 -55 -47 -114 -47
-76 0 -91 14 -33 31 46 14 72 40 60 59 -13 21 -65 40 -91 34 -20 -5 -25 -3
-22 7 2 8 19 15 36 17 18 2 32 7 32 12 0 7 22 15 55 18 6 1 28 -7 50 -18z"/>
<path d="M938 1574 c12 -8 22 -21 22 -28 0 -8 7 -19 15 -26 8 -7 15 -10 15 -7
0 12 -30 61 -42 68 -24 15 -33 9 -10 -7z"/>
<path d="M880 1442 c0 -6 -8 -13 -17 -15 -16 -4 -16 -5 -1 -6 18 -1 34 16 24
26 -3 4 -6 1 -6 -5z"/>
<path d="M490 1453 c-51 -35 -53 -57 -5 -80 58 -28 47 -44 -40 -59 -22 -3 -50
-13 -62 -20 -25 -16 -30 -53 -11 -72 17 -17 81 -15 125 3 60 25 117 20 157
-15 55 -49 60 -129 6 -100 -12 6 -28 27 -36 46 -20 47 -55 62 -89 40 -49 -32
-39 -51 103 -176 75 -66 108 -111 98 -136 -8 -20 -34 -17 -46 6 -16 30 -45 42
-74 30 -38 -14 -33 -46 15 -90 32 -29 40 -42 34 -58 -9 -31 -53 -62 -87 -62
-35 0 -45 21 -24 52 18 25 21 70 7 97 -6 11 -6 33 1 60 15 60 0 91 -46 91 -49
0 -64 -22 -43 -66 30 -61 13 -144 -29 -144 -15 0 -18 14 -15 71 2 28 -4 45
-28 72 l-31 34 30 38 c34 43 37 57 14 79 -19 20 -24 20 -52 0 -18 -12 -23 -13
-26 -2 -3 7 -8 26 -13 42 -19 61 -63 35 -70 -41 -5 -52 8 -87 62 -162 28 -38
32 -73 10 -91 -12 -10 -16 -8 -24 11 -5 13 -12 36 -15 52 -5 22 -12 27 -36 27
-37 0 -48 -33 -31 -90 16 -54 45 -86 97 -106 54 -21 56 -44 2 -57 -43 -10 -54
-31 -33 -63 17 -27 31 -29 86 -13 35 11 40 10 69 -15 22 -18 43 -26 71 -26 33
0 39 -3 39 -20 0 -31 -42 -68 -86 -76 -54 -9 -74 -21 -74 -43 0 -20 53 -71 72
-71 6 0 35 14 65 30 75 43 89 41 63 -10 -25 -49 -25 -76 0 -117 33 -54 110
-80 161 -53 28 15 24 32 -16 67 -19 17 -35 36 -35 42 0 18 58 13 100 -9 72
-37 152 -21 203 40 30 36 32 67 4 84 -14 9 -28 5 -69 -18 -53 -30 -99 -36
-124 -15 -23 19 -17 26 26 33 26 4 54 19 79 41 43 39 61 42 130 19 43 -14 52
-14 84 0 75 31 52 106 -34 106 -21 0 -41 5 -44 10 -4 6 7 29 24 52 46 62 38
98 -21 98 -31 0 -69 -33 -94 -81 -20 -40 -120 -127 -154 -134 -37 -8 -62 9
-58 39 2 14 16 24 48 33 86 24 118 53 105 95 -7 19 -12 20 -65 14 -64 -7 -88
6 -54 31 13 10 34 13 68 9 62 -7 101 9 150 64 81 90 117 223 77 288 -22 33
-47 40 -82 22 -22 -12 -24 -32 -7 -94 15 -55 1 -92 -53 -141 -43 -39 -56 -42
-84 -21 -19 14 -19 15 -1 35 10 11 28 23 40 27 54 16 73 66 37 98 -14 13 -24
14 -44 7 -14 -5 -28 -15 -32 -20 -3 -6 -15 -11 -25 -11 -25 0 -36 40 -23 83 7
28 14 33 53 39 30 5 53 16 68 33 26 31 28 52 6 83 -23 33 -73 30 -109 -8 -15
-16 -31 -27 -36 -25 -4 3 -5 23 -2 45 9 63 -30 98 -121 109 -47 6 -50 8 -59
41 -14 59 -66 78 -117 43z m98 -38 c5 -46 26 -62 87 -67 75 -6 95 -26 95 -95
0 -45 3 -53 19 -53 10 0 35 14 56 30 43 34 40 33 66 20 22 -12 25 -48 6 -74
-7 -10 -32 -20 -55 -23 -51 -7 -72 -32 -72 -86 0 -74 33 -96 83 -57 31 25 44
25 56 2 13 -25 0 -42 -51 -66 -54 -27 -64 -65 -23 -92 26 -17 28 -17 60 1 48
25 73 55 95 111 21 55 26 39 6 -18 -16 -44 -4 -42 14 2 14 33 5 144 -10 135
-5 -3 -7 -20 -4 -38 4 -30 4 -30 -11 7 -17 45 -7 66 31 66 51 0 62 -95 20
-185 -56 -123 -115 -171 -197 -160 -56 8 -99 -11 -99 -44 0 -34 27 -46 73 -34
44 12 57 10 57 -11 0 -22 -32 -43 -92 -60 -47 -13 -59 -21 -64 -42 -8 -33 20
-64 58 -64 61 0 131 54 197 152 35 52 61 71 85 62 22 -9 20 -32 -7 -68 -13
-17 -26 -39 -30 -48 -9 -26 19 -48 61 -48 20 0 43 -4 50 -9 22 -13 10 -44 -23
-60 -26 -12 -35 -12 -76 2 -68 25 -89 21 -143 -23 -30 -25 -58 -40 -76 -40
-15 0 -33 -7 -40 -15 -9 -11 -7 -19 14 -40 32 -32 78 -32 131 0 46 28 75 32
75 9 0 -29 -21 -54 -62 -75 -52 -27 -94 -27 -147 1 -87 44 -148 3 -82 -56 36
-32 39 -50 10 -57 -35 -9 -78 4 -109 33 -36 34 -40 82 -10 137 10 20 17 40 14
45 -10 16 -50 7 -94 -22 -55 -36 -79 -38 -109 -6 -30 32 -21 43 37 52 34 5 56
16 79 39 18 18 35 30 37 27 3 -2 8 8 12 22 6 27 -17 66 -39 66 -6 0 -2 -10 9
-21 19 -22 19 -22 -3 -10 -12 6 -37 11 -55 11 -18 0 -44 9 -58 20 -29 22 -58
25 -94 9 -20 -9 -29 -9 -41 1 -27 22 -18 46 23 56 32 8 37 13 37 38 0 25 -6
31 -40 43 -49 16 -81 51 -95 102 -12 46 -5 71 21 71 13 0 21 -11 29 -39 13
-50 34 -69 56 -50 25 20 12 78 -31 137 -25 35 -38 66 -41 95 l-4 42 18 -39 18
-38 -1 46 c0 31 -4 46 -13 46 -19 0 -9 24 11 28 12 3 18 -7 23 -37 5 -31 11
-41 25 -41 10 0 21 5 24 10 3 6 15 10 26 10 27 0 24 -32 -6 -68 -19 -23 -24
-38 -21 -75 1 -26 6 -50 11 -54 4 -5 5 4 1 20 -8 33 7 36 28 5 11 -15 14 -34
10 -58 -4 -27 -1 -42 14 -60 20 -24 20 -25 41 -6 16 14 21 16 21 5 1 -10 5 -8
15 5 16 21 21 51 7 42 -5 -3 -7 8 -4 23 2 15 -4 45 -13 67 -15 36 -15 39 1 51
11 8 23 9 34 3 25 -14 31 -35 18 -71 -8 -23 -7 -41 3 -71 11 -35 11 -44 -4
-70 -35 -61 -13 -96 50 -78 54 15 75 34 83 77 7 35 8 36 9 8 0 -17 -6 -41 -15
-53 -8 -12 -11 -22 -7 -22 13 0 43 55 43 79 0 24 -55 90 -66 79 -4 -5 1 -18
12 -30 l19 -23 -25 20 c-43 33 -51 47 -39 62 19 22 46 15 69 -18 32 -44 64
-37 68 15 3 38 0 42 -114 152 -102 97 -116 115 -105 128 24 29 60 20 76 -18
14 -32 57 -76 76 -76 5 0 16 11 25 25 15 23 15 27 -6 69 -38 79 -108 104 -200
71 -55 -19 -104 -19 -120 1 -21 24 8 44 74 53 93 13 113 55 40 86 l-37 15 24
26 c19 20 31 24 64 22 36 -3 40 -6 43 -33z"/>
<path d="M509 1420 c-11 -7 -8 -15 15 -39 37 -38 43 -34 18 12 -13 26 -22 33
-33 27z"/>
<path d="M650 1320 c0 -5 15 -10 33 -10 18 0 38 -5 45 -12 9 -9 12 -9 12 0 0
6 -9 16 -19 22 -25 13 -71 13 -71 0z"/>
<path d="M585 1280 c-4 -6 6 -10 24 -10 17 0 42 -11 62 -27 28 -24 31 -25 20
-6 -22 43 -89 70 -106 43z"/>
<path d="M410 1250 c0 -5 5 -10 11 -10 5 0 7 5 4 10 -3 6 -8 10 -11 10 -2 0
-4 -4 -4 -10z"/>
<path d="M890 1211 c0 -6 -20 -19 -45 -30 -57 -25 -58 -33 -2 -14 49 17 74 37
58 47 -6 4 -11 3 -11 -3z"/>
<path d="M550 1151 c0 -6 4 -13 10 -16 6 -3 7 1 4 9 -7 18 -14 21 -14 7z"/>
<path d="M730 1001 c20 -25 36 -59 41 -84 l6 -42 2 38 c1 47 -19 88 -55 112
-25 16 -25 15 6 -24z"/>
<path d="M879 974 l-24 -27 28 18 c15 9 27 21 27 26 0 14 -5 11 -31 -17z"/>
<path d="M500 964 c0 -8 5 -12 10 -9 6 3 10 10 10 16 0 5 -4 9 -10 9 -5 0 -10
-7 -10 -16z"/>
<path d="M237 893 c-3 -5 -1 -17 4 -28 7 -17 8 -17 8 8 1 27 -4 34 -12 20z"/>
<path d="M852 810 c-40 -3 -78 -12 -85 -20 -10 -11 -8 -12 8 -5 11 4 50 10 87
14 37 4 70 10 74 14 4 4 3 6 -2 6 -5 -1 -42 -5 -82 -9z"/>
<path d="M330 765 c0 -2 13 -11 29 -20 19 -10 31 -24 34 -42 3 -23 4 -21 6 9
1 28 -4 40 -18 48 -20 10 -51 14 -51 5z"/>
<path d="M1028 698 c-9 -7 -27 -31 -42 -53 -14 -22 -35 -53 -48 -70 l-22 -30
28 25 c23 21 110 140 102 140 -1 0 -9 -6 -18 -12z"/>
<path d="M773 650 c-40 -9 -63 -27 -63 -48 0 -13 4 -11 15 5 9 12 31 25 50 29
20 3 38 10 41 15 6 10 2 10 -43 -1z"/>
<path d="M347 639 c-9 -5 -22 -7 -27 -4 -6 3 -10 1 -10 -4 0 -14 21 -14 55 -1
21 8 37 6 72 -10 56 -25 66 -20 20 9 -37 23 -81 27 -110 10z"/>
<path d="M1060 518 c0 -4 14 -8 30 -8 17 0 30 2 30 4 0 2 -13 6 -30 8 -16 3
-30 1 -30 -4z"/>
<path d="M760 431 c-15 -29 -12 -46 12 -67 l21 -19 -18 28 c-14 23 -16 32 -7
52 14 29 7 34 -8 6z"/>
<path d="M440 399 c0 -5 9 -9 20 -9 11 0 20 2 20 4 0 2 -9 6 -20 9 -11 3 -20
1 -20 -4z"/>
<path d="M630 376 c-14 -39 -12 -89 5 -112 13 -17 14 -16 4 14 -8 23 -8 45 -1
75 13 48 7 63 -8 23z"/>
<path d="M952 355 c-12 -9 -39 -22 -59 -30 -21 -7 -30 -14 -20 -14 25 -1 80
23 96 42 17 21 12 21 -17 2z"/>
<path d="M1331 1435 c-84 -45 -109 -70 -121 -119 -6 -23 -22 -64 -35 -92 -14
-28 -25 -67 -25 -86 0 -20 -7 -52 -15 -72 -21 -49 -22 -110 -2 -139 11 -18 28
-26 63 -31 80 -11 106 -7 141 20 18 14 49 32 69 40 20 8 44 29 55 49 11 18 36
45 55 60 28 22 34 32 34 64 0 23 12 59 31 94 l30 57 -20 26 c-12 15 -21 38
-21 51 0 36 -16 60 -47 68 -15 3 -39 15 -54 26 -38 27 -64 24 -138 -16z m138
1 c25 -14 54 -27 64 -30 9 -3 17 -15 17 -28 0 -12 9 -41 21 -65 l21 -43 -26
-50 c-14 -27 -26 -63 -26 -79 0 -21 -9 -37 -34 -58 -19 -15 -48 -46 -64 -68
-16 -22 -43 -45 -60 -52 -18 -6 -30 -7 -26 -2 3 5 1 9 -4 9 -6 0 -12 -6 -15
-14 -3 -8 -15 -20 -27 -26 -21 -11 -21 -11 -5 14 9 13 31 36 50 50 18 14 36
37 39 52 4 15 18 42 32 60 21 26 23 37 15 53 -6 11 -11 31 -11 44 0 28 -9 36
-69 62 l-44 19 -68 -71 c-38 -40 -71 -68 -74 -62 -9 14 4 51 28 77 12 12 22
40 24 64 5 49 19 80 36 76 22 -4 67 12 114 42 26 17 40 30 31 30 -8 0 -27 -9
-40 -20 -14 -11 -39 -24 -54 -30 -25 -10 -27 -9 -14 3 13 13 109 67 118 67 2
0 25 -11 51 -24z m-90 -196 c34 -17 39 -25 45 -65 6 -37 4 -50 -13 -71 -12
-15 -21 -33 -21 -41 0 -20 -109 -133 -129 -133 -14 0 -14 -2 -1 -10 17 -11 1
-13 -24 -4 -23 9 -20 23 9 34 17 7 25 17 25 34 0 14 5 37 10 51 13 34 -3 65
-33 65 -12 0 -39 -14 -60 -31 -21 -17 -41 -29 -44 -25 -17 17 152 215 185 216
7 0 30 -9 51 -20z m-111 -166 c14 -24 -11 -106 -35 -115 -11 -4 -23 -14 -26
-23 -9 -22 -40 -20 -61 3 -17 19 -14 62 7 89 12 15 31 16 21 1 -4 -7 7 -4 24
7 17 10 29 20 27 22 -3 3 -11 -1 -20 -8 -9 -7 -18 -10 -21 -7 -6 6 54 47 68
47 4 0 11 -7 16 -16z"/>
<path d="M1343 1367 c-23 -12 -58 -41 -78 -64 -37 -44 -38 -58 -2 -25 19 17
20 16 7 -8 l-13 -25 24 21 c13 12 42 24 63 27 51 8 98 -28 107 -82 l6 -36 2
37 c0 23 -5 42 -15 50 -8 7 -25 21 -36 32 -18 16 -27 17 -72 8 -28 -6 -53 -8
-55 -6 -9 9 37 46 78 65 40 18 42 18 59 -1 9 -10 28 -20 42 -22 18 -2 26 -11
31 -33 3 -16 14 -43 24 -60 l17 -30 -7 28 c-3 17 -2 26 4 23 5 -4 7 3 3 16 -5
21 -6 21 -13 2 -5 -15 -8 -16 -12 -4 -4 8 -7 26 -9 40 -2 19 -10 26 -29 28
-15 2 -35 12 -45 23 -21 24 -29 23 -81 -4z"/>
<path d="M1506 1194 c-3 -9 -6 -26 -6 -38 0 -12 -14 -35 -31 -52 -17 -16 -38
-42 -46 -59 -8 -16 -27 -40 -41 -52 -15 -13 -22 -23 -17 -23 17 1 41 24 58 57
9 17 32 46 51 65 25 24 35 44 39 76 5 44 3 53 -7 26z"/>
<path d="M1249 1168 c-21 -17 -22 -18 -2 -9 12 6 37 11 56 11 33 0 35 -2 41
-41 5 -32 2 -46 -14 -69 -29 -40 -25 -47 6 -11 23 28 25 37 19 81 -4 28 -10
50 -13 51 -45 8 -72 4 -93 -13z"/>
<path d="M1169 978 c-12 -22 -11 -22 8 -5 11 9 23 14 28 10 4 -5 5 -2 1 5 -11
18 -24 15 -37 -10z"/>
<path d="M1007 1350 l-49 -50 5 -62 c3 -35 6 -64 7 -65 0 -1 9 -7 20 -13 15
-8 26 -7 43 1 41 22 127 104 127 121 0 12 -9 8 -34 -18 l-34 -35 -6 25 c-10
39 -44 43 -75 10 l-26 -28 28 24 c22 19 31 22 45 13 21 -13 19 -60 -3 -82 -14
-14 -15 -14 -13 9 2 18 -2 25 -17 27 -18 3 -19 3 -2 -7 13 -9 15 -15 7 -31
-15 -27 -42 -25 -39 4 1 12 -4 34 -11 50 -12 25 -11 30 9 51 13 14 28 23 35
22 6 -2 8 -1 3 1 -4 3 -4 10 0 16 3 7 -3 3 -15 -7 -12 -11 -22 -14 -22 -9 0
14 67 73 83 73 7 0 29 -8 50 -19 20 -10 34 -14 31 -9 -7 11 -67 38 -85 38 -7
0 -34 -22 -62 -50z"/>
<path d="M1131 1304 c0 -11 3 -14 6 -6 3 7 2 16 -1 19 -3 4 -6 -2 -5 -13z"/>
<path d="M437 1164 c-16 -16 -7 -44 14 -44 15 0 20 5 17 22 -3 22 -19 33 -31
22z"/>
<path d="M1654 1155 c-4 -9 -2 -21 4 -27 16 -16 47 -5 47 17 0 26 -42 34 -51
10z m36 -15 c0 -5 -2 -10 -4 -10 -3 0 -8 5 -11 10 -3 6 -1 10 4 10 6 0 11 -4
11 -10z"/>
<path d="M1607 1120 c3 -22 0 -53 -7 -70 -17 -40 -89 -103 -170 -148 -85 -47
-128 -81 -146 -114 -21 -41 -34 -34 -34 17 0 59 -21 60 -49 2 -27 -56 -26 -92
5 -206 28 -102 27 -137 -7 -203 -23 -46 -33 -47 -49 -8 -7 17 -18 30 -26 30
-13 0 -18 -11 -29 -68 -4 -19 -21 -50 -38 -70 -28 -32 -29 -35 -8 -21 14 9 33
32 44 52 10 21 24 37 29 37 6 0 6 6 -2 15 -13 15 -5 39 11 30 5 -4 9 -14 9
-23 0 -9 4 -24 10 -32 13 -21 43 9 70 73 18 42 21 63 16 112 -3 33 -12 78 -20
100 -17 46 -20 132 -6 169 13 35 27 33 28 -6 0 -17 7 -38 15 -46 13 -13 17
-11 30 14 23 43 73 86 156 134 41 24 94 60 116 81 23 21 46 35 50 31 5 -4 5
-2 2 4 -6 10 13 78 26 90 4 4 7 -13 7 -37 -1 -62 -29 -117 -88 -171 -29 -25
-52 -49 -52 -52 0 -3 16 -6 36 -6 19 0 33 -4 30 -9 -3 -4 -48 -29 -101 -55
-115 -57 -146 -92 -153 -170 -5 -59 20 -128 33 -93 10 25 23 21 28 -10 3 -19
4 -14 6 16 1 42 0 43 -17 28 -10 -10 -21 -17 -25 -17 -13 0 -19 74 -9 109 16
51 52 83 159 135 50 25 95 50 98 57 10 15 -16 30 -40 22 -13 -4 -2 13 31 49
72 79 92 162 58 234 -22 45 -33 43 -27 -6z"/>
<path d="M465 1090 c-12 -20 6 -51 28 -48 31 4 31 52 0 56 -11 2 -24 -2 -28
-8z m37 -15 c0 -5 -5 -11 -11 -13 -6 -2 -11 4 -11 13 0 9 5 15 11 13 6 -2 11
-8 11 -13z"/>
<path d="M851 1090 c-17 -10 -7 -40 13 -40 7 0 16 6 19 14 8 19 -15 37 -32 26z"/>
<path d="M1680 1055 c-28 -34 19 -78 55 -51 26 19 13 66 -19 66 -13 0 -29 -7
-36 -15z m47 -11 c8 -21 -13 -42 -28 -27 -13 13 -5 43 11 43 6 0 13 -7 17 -16z"/>
<path d="M1560 955 c-18 -19 -67 -54 -109 -78 -42 -25 -83 -52 -90 -61 -13
-16 85 40 162 92 32 21 87 82 75 82 -2 0 -19 -16 -38 -35z"/>
<path d="M1670 938 c19 -66 -10 -123 -95 -183 -74 -53 -115 -98 -115 -126 0
-23 -13 -25 -30 -4 -11 14 -40 21 -40 10 0 -2 11 -20 24 -40 57 -83 39 -199
-42 -283 -76 -78 -192 -123 -363 -141 -69 -7 -75 -9 -33 -10 98 -2 262 35 354
80 104 52 197 140 225 212 20 53 15 69 -15 42 -19 -18 -20 -17 -20 4 0 37 27
76 82 122 61 50 72 63 94 102 17 32 9 51 -10 24 -23 -30 -25 -18 -5 33 21 55
25 124 9 164 -14 38 -31 33 -20 -6z m15 -110 c-4 -18 -22 -59 -40 -90 -32 -54
-29 -77 4 -45 8 7 12 8 10 1 -2 -6 -32 -34 -66 -63 -52 -43 -65 -60 -77 -102
-18 -58 -14 -73 16 -63 20 6 20 5 -3 -36 -23 -41 -122 -140 -139 -140 -5 0 7
23 25 50 19 28 37 67 41 86 7 39 1 118 -12 149 -7 18 -6 18 9 6 15 -12 17 -11
17 8 0 49 29 89 104 145 47 35 83 70 93 91 21 44 27 44 18 3z"/>
<path d="M1562 704 l-37 -36 43 32 c23 17 42 34 42 36 0 10 -13 1 -48 -32z"/>
<path d="M1554 638 l-29 -33 33 29 c30 28 37 36 29 36 -2 0 -16 -15 -33 -32z"/>
<path d="M1472 520 c0 -14 2 -19 5 -12 2 6 2 18 0 25 -3 6 -5 1 -5 -13z"/>
<path d="M1135 850 c-4 -6 -1 -18 6 -26 12 -14 14 -14 26 2 7 9 10 21 7 25 -7
12 -31 11 -39 -1z"/>
<path d="M1051 827 c-24 -29 17 -70 46 -46 8 7 13 22 11 33 -4 25 -40 33 -57
13z m39 -23 c0 -16 -16 -19 -25 -4 -8 13 4 32 16 25 5 -4 9 -13 9 -21z"/>
<path d="M601 786 c-15 -18 -3 -46 19 -46 10 0 21 7 24 16 6 16 -9 44 -24 44
-4 0 -13 -6 -19 -14z m29 -16 c0 -5 -7 -10 -15 -10 -8 0 -15 5 -15 10 0 6 7
10 15 10 8 0 15 -4 15 -10z"/>
<path d="M1353 735 c-24 -25 -43 -51 -43 -57 0 -7 11 4 25 24 13 19 37 45 52
57 15 11 24 21 19 21 -5 0 -29 -20 -53 -45z"/>
<path d="M1231 683 c-1 -6 6 -42 15 -79 9 -41 13 -88 10 -118 -4 -35 -3 -45 3
-31 16 33 12 106 -8 175 -11 36 -20 60 -20 53z"/>
<path d="M1116 651 c-8 -13 20 -45 32 -37 20 12 14 46 -7 46 -11 0 -22 -4 -25
-9z"/>
<path d="M1645 630 c-8 -14 3 -30 21 -30 8 0 14 9 14 20 0 21 -24 28 -35 10z"/>
<path d="M1602 581 c-21 -13 -10 -46 16 -49 20 -3 23 0 20 24 -3 30 -16 38
-36 25z m28 -21 c0 -5 -7 -10 -15 -10 -8 0 -15 5 -15 10 0 6 7 10 15 10 8 0
15 -4 15 -10z"/>
<path d="M376 535 c-6 -17 9 -21 20 -4 4 7 10 7 16 1 14 -14 -1 -35 -19 -27
-13 4 -14 3 -4 -9 7 -8 19 -12 26 -9 17 6 29 39 20 53 -10 15 -52 12 -59 -5z"/>
<path d="M1330 433 c0 -6 -12 -28 -26 -49 -15 -21 -19 -32 -10 -24 21 17 49
70 42 78 -3 3 -6 1 -6 -5z"/>
<path d="M1371 418 c-1 -27 -64 -91 -118 -120 -44 -24 -217 -72 -239 -67 -11
3 -97 -21 -93 -26 13 -12 287 53 339 80 65 34 128 109 116 138 -2 7 -5 4 -5
-5z"/>
<path d="M841 236 c-16 -19 -6 -36 20 -36 15 0 20 6 17 22 -4 27 -21 33 -37
14z"/>
</g>
</svg>
