<?xml version="1.0" encoding="utf-8"?>
<!DOCTYPE svg PUBLIC "-//W3C//DTD SVG 1.0//EN" "http://www.w3.org/TR/2001/REC-SVG-20010904/DTD/svg10.dtd">
<svg version="1.0" xmlns="http://www.w3.org/2000/svg" width="154px" height="156px" viewBox="0 0 154 156" preserveAspectRatio="xMidYMid meet">
 <g fill="#1f2428">
  <path d="M66.50 135.70 c-8.35 -1.35 -17.05 -4.85 -23.75 -9.65 -6.35 -4.50 -10.55 -8.95 -15.45 -16.25 -1.90 -2.90 -2.30 -3.90 -2.30 -5.75 l0 -2.30 15.65 0 c15.65 0 17.75 -0.15 33.35 -2.30 21.20 -2.95 41.95 -9.45 55.45 -17.40 1.55 -0.95 3.30 -1.55 4.30 -1.55 1.60 0 1.75 0.10 1.75 1.55 0 3.20 -1.65 11.80 -3 15.70 -6.70 19.40 -23.45 34.05 -43.25 37.75 -5.05 0.95 -17.40 1.05 -22.75 0.20z"/>
  <path d="M22.35 95.65 c-1.90 -0.30 -2.35 -1.50 -2.70 -6.70 l-0.30 -4.45 8.20 0 c26.40 -0.10 48.45 -4 68.90 -12.20 10.10 -4.05 21.95 -11.95 27.45 -18.30 1.90 -2.15 2.45 -2.50 4.05 -2.50 1.55 0 2 0.25 2.50 1.40 2.50 5.40 4.75 14.50 4.45 18 -0.15 1.60 -0.55 2.10 -3.15 3.95 -3.95 2.75 -14.85 8.20 -20.50 10.15 -11 3.90 -24.10 7.10 -34.50 8.50 -2.45 0.35 -6.85 0.95 -9.75 1.35 -5.10 0.70 -41.30 1.40 -44.65 0.80z"/>
  <path d="M18.65 77.70 c-0.35 -0.90 0.15 -9.15 0.65 -10.40 0.25 -0.70 1.25 -0.80 6.65 -0.80 27.70 -0.05 53.40 -6.80 70.70 -18.60 5.30 -3.65 10.65 -8.55 13.45 -12.25 1.75 -2.40 2.10 -2.65 3.85 -2.65 1.80 0 2.25 0.35 6 4.30 3.80 4.10 4.05 4.50 4.05 6.55 0 7.30 -16.40 19.40 -34.95 25.85 -11.40 3.95 -28.20 7.35 -41.05 8.30 -3.45 0.25 -11.40 0.50 -17.65 0.50 -9.95 0 -11.40 -0.10 -11.70 -0.80z"/>
  <path d="M22 58.50 c0 -1.50 0.65 -3.50 2.20 -6.70 6.40 -13.35 17 -23.05 31.30 -28.55 6 -2.35 10.90 -3.25 19 -3.60 11.25 -0.45 21.90 1.75 30.15 6.25 2.35 1.25 2.60 1.60 2.75 3.30 0.15 1.55 -0.20 2.30 -1.95 4.65 -7.85 10.15 -26.35 19.70 -45.70 23.60 -11.50 2.30 -14.20 2.60 -25.85 2.90 l-11.90 0.30 0 -2.15z"/>
 </g>
 <g fill="#ffffff">
  <path d="M0 78 l0 -78 77 0 77 0 0 78 0 78 -77 0 -77 0 0 -78z m87.75 56 c19.30 -3.50 35.95 -17.80 43 -36.90 1.20 -3.10 3.50 -14.50 3.05 -14.95 -0.10 -0.10 -1.35 0.50 -2.80 1.35 -13.55 8 -34.25 14.50 -55.50 17.45 -15.10 2.10 -17.75 2.25 -33.35 2.30 -13.85 0 -15.65 0.10 -15.65 0.80 0 0.95 3.80 6.65 7.25 10.95 8 9.80 21 17.10 34.25 19.20 5.20 0.85 14.55 0.75 19.75 -0.20z m-22.25 -40.65 c2.90 -0.40 7.30 -1 9.75 -1.35 15.25 -2.05 32.85 -7.10 44.50 -12.75 5.55 -2.70 12.80 -7.15 13.45 -8.20 1 -1.55 -3.80 -18.05 -5.25 -18.05 -0.20 0 -1.35 1.10 -2.55 2.50 -5.50 6.35 -17.35 14.25 -27.45 18.30 -20.45 8.20 -42.50 12.10 -68.90 12.20 l-8.20 0 0.35 3.10 c0.45 3.85 0.95 4.75 2.65 5.05 3.25 0.60 36.55 -0.10 41.65 -0.80z m-19 -16.85 c12.85 -0.95 29.65 -4.35 41.05 -8.30 11.40 -3.95 23.30 -10.70 29.15 -16.55 3.20 -3.20 5.80 -6.65 5.80 -7.80 0 -0.40 -1.90 -2.70 -4.25 -5.15 l-4.25 -4.45 -1.40 1.75 c-3 3.90 -10.10 10.45 -14.45 13.40 -17.40 11.80 -43.05 18.55 -70.70 18.60 -4.80 0 -6.40 0.15 -6.60 0.65 -0.50 1.25 -0.95 7.25 -0.60 7.80 0.40 0.70 17.35 0.70 26.25 0.05z m2.25 -18.75 c23.45 -4.15 38.20 -10 49.75 -19.85 3.60 -3.05 7.75 -8.10 7.30 -8.80 -0.50 -0.85 -5.35 -3.15 -10.10 -4.90 -11.95 -4.30 -26.70 -4.10 -38.70 0.55 -14.30 5.50 -24.90 15.20 -31.30 28.55 -1.20 2.50 -2.20 4.85 -2.20 5.20 0 0.90 19.10 0.30 25.25 -0.75z"/>
 </g>
</svg>