<?xml version="1.0" encoding="utf-8"?>
<!DOCTYPE svg PUBLIC "-//W3C//DTD SVG 1.0//EN" "http://www.w3.org/TR/2001/REC-SVG-20010904/DTD/svg10.dtd">
<svg version="1.0" xmlns="http://www.w3.org/2000/svg" width="157px" height="139px" viewBox="0 0 157 139" preserveAspectRatio="xMidYMid meet">
 <g fill="#27322e">
  <path d="M111.25 119.35 c-1.60 -1.60 -1.75 -2 -1.75 -4.75 0 -2.50 0.20 -3.30 1.30 -4.55 1.25 -1.50 1.45 -1.55 5 -1.55 3.30 0 3.90 0.15 4.95 1.25 1.10 1.05 1.25 1.65 1.25 4.70 0 2.95 -0.20 3.70 -1.20 4.85 -1 1.20 -1.60 1.40 -4.45 1.60 -3.25 0.20 -3.35 0.20 -5.10 -1.55z"/>
  <path d="M52.50 114 c-6.40 -2.35 -11 -6.90 -12.95 -12.80 -1.40 -4.35 -1.45 -10.85 -0.05 -15.40 1 -3.15 3.55 -7.10 5.70 -8.85 l1.05 -0.85 -1.45 -1.45 c-4.30 -4.25 -6.30 -9.20 -6.30 -15.75 0 -9.40 3.80 -16.10 11.05 -19.55 5 -2.35 5.85 -2.40 29.20 -2.25 l22 0.15 3.45 1.70 c8.10 3.95 11.80 10.15 11.80 19.50 0 6.95 -1.75 11.65 -5.80 15.65 l-1.85 1.90 2.10 2.10 c1.15 1.20 2.80 3.55 3.65 5.30 1.30 2.60 1.60 3.85 1.80 7.85 0.55 10.80 -2.95 17.50 -11.30 21.60 l-3.80 1.90 -22.75 0.10 c-21.70 0.15 -22.95 0.10 -25.55 -0.85z m46.85 -8.80 c4.65 -2.30 8.35 -7.65 8.25 -12 0 -3 -2.25 -7.35 -4.75 -9.35 -4.25 -3.30 -5.15 -3.55 -15.65 -3.75 l-9.55 -0.20 1.75 3.60 c1.60 3.20 1.85 4.15 2 8.30 0.25 5.70 -0.40 8.55 -3.30 14.35 -0.10 0.20 4.05 0.35 9.25 0.35 9.15 0 9.55 -0.05 12 -1.30z m-24.30 -36.80 c-1.75 -3.55 -1.80 -3.80 -1.80 -9.65 0 -5.75 0.05 -6.15 1.65 -9.45 0.85 -1.85 1.60 -3.50 1.60 -3.65 0 -0.15 -4.35 -0.15 -9.60 -0.05 -10.75 0.20 -11.55 0.40 -15.55 3.95 -2.55 2.20 -4.50 6.20 -4.50 9.25 0 3.85 3.50 9.35 7.20 11.25 3.10 1.55 5.20 1.85 14.25 1.90 l8.50 0.05 -1.75 -3.60z"/>
 </g>
 <g fill="#ffffff">
  <path d="M0 69.50 l0 -69.50 78.50 0 78.50 0 0 69.50 0 69.50 -78.50 0 -78.50 0 0 -69.50z m119.40 48.25 c1.55 -1.85 1.50 -4.90 -0.15 -6.50 -0.90 -0.95 -1.75 -1.25 -3.45 -1.25 -1.85 0 -2.40 0.25 -3.50 1.55 -1.85 2.20 -1.70 4.15 0.45 6.30 1.60 1.60 2 1.75 3.65 1.50 1.10 -0.20 2.30 -0.85 3 -1.60z m-16.30 -6.40 c6 -2.95 9.70 -7.65 10.95 -13.80 1.55 -8.10 -1.05 -14.85 -8.05 -20.55 -1.25 -1 -1.25 -1 -0.25 -1.75 0.55 -0.45 1.85 -1.60 2.90 -2.60 8 -7.70 7.70 -21.30 -0.60 -28.80 -1.05 -0.95 -3.45 -2.45 -5.35 -3.40 l-3.45 -1.70 -20.50 -0.15 c-21.75 -0.15 -22.75 -0.10 -27.70 2.25 -9.15 4.35 -13.35 15.35 -9.60 25.15 1.15 3.10 4 6.80 6.45 8.50 0.85 0.60 1.60 1.30 1.60 1.45 0 0.20 -0.85 1 -1.95 1.80 -6.35 4.80 -9.10 14.05 -6.50 21.95 1.95 5.90 6.55 10.45 12.95 12.80 2.60 0.95 3.85 1 24.05 0.85 l21.25 -0.10 3.80 -1.90z"/>
  <path d="M113.25 117.20 c-0.70 -0.75 -1.25 -1.75 -1.25 -2.30 0 -1.50 1.45 -3.90 2.40 -3.95 3.40 -0.20 5.10 1.05 5.10 3.75 0 1.85 -0.35 2.45 -1.85 3.25 -1.70 0.90 -3.10 0.65 -4.40 -0.75z m1.75 -1 c0 -0.95 1.30 -0.90 1.70 0.05 0.60 1.55 1.25 0.65 1.15 -1.60 -0.10 -2.10 -0.25 -2.45 -1.50 -2.85 -0.95 -0.35 -1.55 -0.30 -1.95 0.10 -0.60 0.60 -0.95 3.35 -0.55 4.75 0.25 1 1.15 0.65 1.15 -0.45z"/>
  <path d="M115 113.50 c0 -0.25 0.35 -0.50 0.75 -0.50 0.40 0 0.75 0.25 0.75 0.50 0 0.30 -0.35 0.50 -0.75 0.50 -0.40 0 -0.75 -0.20 -0.75 -0.50z"/>
  <path d="M74 107.70 c0 -0.15 0.75 -1.20 1.70 -2.30 2.65 -3.10 4.05 -7.35 4.05 -12.40 -0.05 -4.75 -1.15 -7.95 -4.10 -11.85 -0.90 -1.20 -1.65 -2.30 -1.65 -2.45 0 -0.15 5.45 -0.20 12.15 -0.10 10.75 0.15 12.35 0.30 14.10 1.15 3.60 1.75 6.10 4.10 7.55 7.15 3.55 7.35 0.45 16.15 -6.95 19.80 -2.50 1.30 -2.65 1.30 -14.70 1.30 -6.70 0 -12.15 -0.15 -12.15 -0.30z"/>
  <path d="M56.35 72.95 c-4.50 -1.05 -7.65 -3.65 -9.90 -8.25 -2.60 -5.30 -1.10 -12.75 3.40 -16.65 4.20 -3.70 4.45 -3.80 18.30 -3.95 7.10 -0.10 12.35 0 12.35 0.25 0 0.25 -0.55 1 -1.20 1.60 -0.65 0.60 -1.95 2.75 -2.85 4.70 -1.55 3.25 -1.70 4 -1.70 8.10 0.05 3.85 0.25 4.95 1.40 7.50 0.75 1.65 2.05 3.85 2.85 4.85 0.85 1 1.50 1.95 1.50 2.10 0 0.50 -22.10 0.25 -24.15 -0.25z"/>
 </g>
</svg>