<?xml version="1.0" encoding="UTF-8"?>
<svg version="1.1" xmlns="http://www.w3.org/2000/svg" width="178" height="180">
<path d="M0 0 C58.74 0 117.48 0 178 0 C178 59.4 178 118.8 178 180 C119.26 180 60.52 180 0 180 C0 120.6 0 61.2 0 0 Z " fill="#0855E2" transform="translate(0,0)"/>
<path d="M0 0 C1.66289062 0.79857422 1.66289062 0.79857422 3.359375 1.61328125 C20.47546599 10.34558559 29.32913714 23.36986245 36 41 C39.44221168 52.64098793 38.22039769 68.20291634 33 79 C32.27103516 80.61068359 32.27103516 80.61068359 31.52734375 82.25390625 C24.87972796 95.81629969 14.70748994 103.972907 1.5 110.8125 C-13.70602685 115.97168768 -30.27447799 115.73246525 -44.875 109.0625 C-60.26137515 101.32432302 -70.51266183 87.66658728 -77 72 C-81.81804428 56.06224501 -80.05110425 39.70927966 -72.49609375 25.08984375 C-64.61113818 11.58091987 -54.12570937 3.85529679 -40 -2 C-38.60587891 -2.58974609 -38.60587891 -2.58974609 -37.18359375 -3.19140625 C-25.4864879 -6.16232761 -10.81744722 -5.26964215 0 0 Z " fill="#F5F3FD" transform="translate(110,36)"/>
<path d="M0 0 C15.42363669 8.87353457 22.85962913 24.80890077 27.875 41.125 C28.07738281 41.75664063 28.27976563 42.38828125 28.48828125 43.0390625 C30.39947782 53.34794098 29.57262564 63.63138477 23.6875 72.375 C18.59090634 77.35833602 12.84849326 79.54553223 5.875 80.5625 C-1.2713737 80.43928666 -8.77692257 75.75898512 -13.875 71 C-14.99567791 69.7405974 -16.07674913 68.44529693 -17.125 67.125 C-18.09179688 65.93197266 -18.09179688 65.93197266 -19.078125 64.71484375 C-28.67320194 51.6955695 -34.34052879 34.30954079 -33.125 18.125 C-31.58720483 9.90170547 -27.48501874 4.74581462 -21 -0.3125 C-14.45312835 -3.63651872 -6.55168892 -2.89925132 0 0 Z " fill="#0B56E1" transform="translate(91.125,51.875)"/>
<path d="M0 0 C0.66 0.33 1.32 0.66 2 1 C1.01 2.485 1.01 2.485 0 4 C0.66 4.33 1.32 4.66 2 5 C1.67 6.32 1.34 7.64 1 9 C0.67 8.34 0.34 7.68 0 7 C-1.65 7 -3.3 7 -5 7 C-3.47793991 4.37098712 -2.15634036 2.15634036 0 0 Z " fill="#2562DA" transform="translate(67,54)"/>
<path d="M0 0 C0 1.98 0 3.96 0 6 C-1.65 5.67 -3.3 5.34 -5 5 C-5 5.66 -5 6.32 -5 7 C-5.66 6.67 -6.32 6.34 -7 6 C-3.76923077 0 -3.76923077 0 0 0 Z " fill="#155DDA" transform="translate(142,122)"/>
<path d="M0 0 C1.12894876 0.93274109 2.25300876 1.87140122 3.375 2.8125 C4.00148438 3.33457031 4.62796875 3.85664063 5.2734375 4.39453125 C7 6 7 6 9 9 C8.01 9.495 8.01 9.495 7 10 C6.67 9.34 6.34 8.68 6 8 C5.360625 7.7525 4.72125 7.505 4.0625 7.25 C1.0872577 5.44682285 0.85092063 3.2618624 0 0 Z " fill="#3169DA" transform="translate(45,129)"/>
<path d="M0 0 C-1.45255699 3.82946843 -3.42895561 5.12050295 -7 7 C-6.61402985 4.20171644 -6.19863427 3.1794116 -4.0625 1.25 C-2 0 -2 0 0 0 Z " fill="#1158D9" transform="translate(117,144)"/>
<path d="M0 0 C6.52307692 -0.36923077 6.52307692 -0.36923077 8.9375 1.5 C9.288125 1.995 9.63875 2.49 10 3 C3.375 3.125 3.375 3.125 0 2 C0 1.34 0 0.68 0 0 Z " fill="#1B5CD7" transform="translate(102,32)"/>
</svg>
